/* XPM */
static char * icoin32_xpm[] = {
"32 32 735 2",
"  	c None",
". 	c #161922",
"+ 	c #151920",
"@ 	c #171A23",
"# 	c #161A23",
"$ 	c #222732",
"% 	c #1B222D",
"& 	c #202631",
"* 	c #181F2A",
"= 	c #171822",
"- 	c #16181F",
"; 	c #161920",
"> 	c #171A22",
", 	c #181C25",
"' 	c #171B26",
") 	c #1B212B",
"! 	c #191D28",
"~ 	c #1C212C",
"{ 	c #191C27",
"] 	c #181C27",
"^ 	c #171D29",
"/ 	c #1E2731",
"( 	c #1B2231",
"_ 	c #161822",
": 	c #15161E",
"< 	c #191A24",
"[ 	c #191A25",
"} 	c #1B1F2B",
"| 	c #1E222E",
"1 	c #191D29",
"2 	c #171C27",
"3 	c #181C28",
"4 	c #1C222E",
"5 	c #1A202E",
"6 	c #1B212F",
"7 	c #1E2433",
"8 	c #1E2534",
"9 	c #16161F",
"0 	c #1D1E29",
"a 	c #191B27",
"b 	c #1A1D29",
"c 	c #181D29",
"d 	c #1D212E",
"e 	c #1A1E2A",
"f 	c #181D28",
"g 	c #161B26",
"h 	c #242C37",
"i 	c #1C212E",
"j 	c #191F2D",
"k 	c #1C2230",
"l 	c #222836",
"m 	c #202431",
"n 	c #53656C",
"o 	c #1D2536",
"p 	c #15171F",
"q 	c #141821",
"r 	c #181B24",
"s 	c #181C29",
"t 	c #1F2332",
"u 	c #191C2B",
"v 	c #242B35",
"w 	c #222B36",
"x 	c #181F2B",
"y 	c #1B202E",
"z 	c #1C222F",
"A 	c #1D2331",
"B 	c #1F2533",
"C 	c #212735",
"D 	c #252C38",
"E 	c #1A212F",
"F 	c #212737",
"G 	c #212838",
"H 	c #161921",
"I 	c #181A25",
"J 	c #191C28",
"K 	c #191C2A",
"L 	c #181B2A",
"M 	c #171C2A",
"N 	c #1A1F2D",
"O 	c #181C2A",
"P 	c #343A41",
"Q 	c #272E3B",
"R 	c #232636",
"S 	c #242A38",
"T 	c #262C3A",
"U 	c #2B303F",
"V 	c #1F2333",
"W 	c #424D58",
"X 	c #232B39",
"Y 	c #262938",
"Z 	c #202635",
"` 	c #212839",
" .	c #2B3446",
"..	c #151822",
"+.	c #151723",
"@.	c #161825",
"#.	c #222733",
"$.	c #323A46",
"%.	c #1E2231",
"&.	c #252E3A",
"*.	c #161926",
"=.	c #282B3B",
"-.	c #212533",
";.	c #1E2432",
">.	c #1B222E",
",.	c #202332",
"'.	c #222535",
").	c #212634",
"!.	c #242838",
"~.	c #242738",
"{.	c #2A2D3E",
"].	c #222837",
"^.	c #252A3A",
"/.	c #242A3A",
"(.	c #272D3F",
"_.	c #283043",
":.	c #262D40",
"<.	c #313E51",
"[.	c #272F3C",
"}.	c #141721",
"|.	c #1C1E2A",
"1.	c #1C202C",
"2.	c #1B212D",
"3.	c #282F3D",
"4.	c #191D2A",
"5.	c #1A1D2D",
"6.	c #1A1E2B",
"7.	c #242938",
"8.	c #212432",
"9.	c #222534",
"0.	c #242839",
"a.	c #272D3B",
"b.	c #262B3B",
"c.	c #282D3C",
"d.	c #252C3F",
"e.	c #252B3D",
"f.	c #283143",
"g.	c #2D3649",
"h.	c #252F41",
"i.	c #333F51",
"j.	c #425567",
"k.	c #131926",
"l.	c #161925",
"m.	c #151824",
"n.	c #151924",
"o.	c #202734",
"p.	c #1B1E2D",
"q.	c #252B39",
"r.	c #1A1D2C",
"s.	c #212332",
"t.	c #37404B",
"u.	c #38404D",
"v.	c #252837",
"w.	c #262B39",
"x.	c #3C4451",
"y.	c #252B3A",
"z.	c #242939",
"A.	c #2C3446",
"B.	c #232B3D",
"C.	c #293143",
"D.	c #2E3B4C",
"E.	c #313E52",
"F.	c #242F42",
"G.	c #222D40",
"H.	c #262F44",
"I.	c #181B27",
"J.	c #17151F",
"K.	c #19202D",
"L.	c #1B2031",
"M.	c #151923",
"N.	c #1E252D",
"O.	c #383F49",
"P.	c #1C212F",
"Q.	c #1E2130",
"R.	c #252D3A",
"S.	c #232A37",
"T.	c #232A3A",
"U.	c #343C48",
"V.	c #525B67",
"W.	c #232536",
"X.	c #222939",
"Y.	c #333A4C",
"Z.	c #242B3E",
"`.	c #272D40",
" +	c #43515D",
".+	c #2D394B",
"++	c #273144",
"@+	c #232B3F",
"#+	c #2B394E",
"$+	c #273348",
"%+	c #263146",
"&+	c #2B364A",
"*+	c #242E42",
"=+	c #161521",
"-+	c #161823",
";+	c #586C76",
">+	c #3C4B5B",
",+	c #1C202E",
"'+	c #181E2A",
")+	c #252C36",
"!+	c #2E3441",
"~+	c #202331",
"{+	c #202333",
"]+	c #2A3240",
"^+	c #3F4756",
"/+	c #2B3041",
"(+	c #252A3D",
"_+	c #212639",
":+	c #23293A",
"<+	c #262D3F",
"[+	c #252D40",
"}+	c #303C4E",
"|+	c #475763",
"1+	c #3F4F60",
"2+	c #2F3A4D",
"3+	c #273145",
"4+	c #344155",
"5+	c #333D53",
"6+	c #283248",
"7+	c #263346",
"8+	c #485969",
"9+	c #171723",
"0+	c #141522",
"a+	c #202532",
"b+	c #262E3C",
"c+	c #161929",
"d+	c #171B2A",
"e+	c #202433",
"f+	c #515360",
"g+	c #4A4D5C",
"h+	c #1A1E2E",
"i+	c #232637",
"j+	c #262839",
"k+	c #252C3D",
"l+	c #272C3E",
"m+	c #2B3547",
"n+	c #58656F",
"o+	c #4A5568",
"p+	c #353F51",
"q+	c #364051",
"r+	c #2D3A4D",
"s+	c #465867",
"t+	c #2B374B",
"u+	c #263248",
"v+	c #28354A",
"w+	c #2A364C",
"x+	c #2A374D",
"y+	c #343F50",
"z+	c #566472",
"A+	c #161726",
"B+	c #151926",
"C+	c #898A91",
"D+	c #BEC0C4",
"E+	c #141927",
"F+	c #101524",
"G+	c #9497A0",
"H+	c #FFFFFF",
"I+	c #E7E8EA",
"J+	c #F5F6F6",
"K+	c #FEFEFE",
"L+	c #545663",
"M+	c #252A3B",
"N+	c #272E3F",
"O+	c #283244",
"P+	c #293146",
"Q+	c #3E4A5B",
"R+	c #344056",
"S+	c #222C42",
"T+	c #5F697A",
"U+	c #2D3D4E",
"V+	c #3C495C",
"W+	c #2C384F",
"X+	c #2D3951",
"Y+	c #334153",
"Z+	c #3E4A5E",
"`+	c #324057",
" @	c #29384D",
".@	c #404E5F",
"+@	c #141928",
"@@	c #191D2D",
"#@	c #161624",
"$@	c #0C0E1F",
"%@	c #101528",
"&@	c #1A2133",
"*@	c #787B86",
"=@	c #F9F9F9",
"-@	c #343A4A",
";@	c #192030",
">@	c #131B2B",
",@	c #6C707D",
"'@	c #262C3E",
")@	c #242D3E",
"!@	c #262E41",
"~@	c #1D2639",
"{@	c #1B273B",
"]@	c #242F44",
"^@	c #2A354A",
"/@	c #2A354B",
"(@	c #15223C",
"_@	c #29354E",
":@	c #25334A",
"<@	c #203047",
"[@	c #2F3C52",
"}@	c #24314A",
"|@	c #2A394F",
"1@	c #2F3B51",
"2@	c #414B5F",
"3@	c #303C50",
"4@	c #26334A",
"5@	c #151B2A",
"6@	c #171827",
"7@	c #141C2A",
"8@	c #7D828B",
"9@	c #B7BAC1",
"0@	c #0C1223",
"a@	c #EBECED",
"b@	c #6F737D",
"c@	c #1E2333",
"d@	c #1E2435",
"e@	c #1F2535",
"f@	c #1E2637",
"g@	c #747982",
"h@	c #333B4B",
"i@	c #1C2537",
"j@	c #9EA2AA",
"k@	c #FCFCFC",
"l@	c #B4B8C0",
"m@	c #2B364D",
"n@	c #2D3950",
"o@	c #D7D9DE",
"p@	c #556073",
"q@	c #4A556A",
"r@	c #DFE1E5",
"s@	c #989FAA",
"t@	c #F0F1F3",
"u@	c #4F5B6F",
"v@	c #2D3C53",
"w@	c #2F3A53",
"x@	c #303D53",
"y@	c #1E2535",
"z@	c #212736",
"A@	c #28303E",
"B@	c #838892",
"C@	c #B2B4BA",
"D@	c #14182A",
"E@	c #35394A",
"F@	c #1C2636",
"G@	c #2F3B4A",
"H@	c #1B2335",
"I@	c #23283A",
"J@	c #21283A",
"K@	c #232C3F",
"L@	c #818792",
"M@	c #DDDFE3",
"N@	c #212F47",
"O@	c #C8CBD1",
"P@	c #A2A8B2",
"Q@	c #28384F",
"R@	c #EEF0F1",
"S@	c #5D687A",
"T@	c #566275",
"U@	c #9AA0AB",
"V@	c #39455C",
"W@	c #B2B7BF",
"X@	c #C2C6CD",
"Y@	c #304156",
"Z@	c #37465A",
"`@	c #313D54",
" #	c #1D2233",
".#	c #202B3A",
"+#	c #1C1E2F",
"@#	c #83848E",
"##	c #B3B4BA",
"$#	c #191F32",
"%#	c #2F3646",
"&#	c #323E49",
"*#	c #293247",
"=#	c #44525B",
"-#	c #1F293C",
";#	c #2D3A4A",
">#	c #D6DADD",
",#	c #7A8190",
"'#	c #2E3A4E",
")#	c #2F3C51",
"!#	c #616C7C",
"~#	c #EEEFEF",
"{#	c #556471",
"]#	c #EFF1F3",
"^#	c #636B7C",
"/#	c #596376",
"(#	c #FAFBFB",
"_#	c #2B3B54",
":#	c #36445D",
"<#	c #75808E",
"[#	c #DDE1E3",
"}#	c #3C4859",
"|#	c #4F5968",
"1#	c #343F56",
"2#	c #1E2536",
"3#	c #373D51",
"4#	c #26293D",
"5#	c #858690",
"6#	c #B3B5BC",
"7#	c #12182C",
"8#	c #F5F5F6",
"9#	c #6A717C",
"0#	c #1E2738",
"a#	c #272F44",
"b#	c #283242",
"c#	c #2D364C",
"d#	c #767C88",
"e#	c #DBDDE1",
"f#	c #767F8D",
"g#	c #313D53",
"h#	c #354358",
"i#	c #5D6776",
"j#	c #FAFAFB",
"k#	c #1F2E43",
"l#	c #636F81",
"m#	c #5A677A",
"n#	c #FBFCFC",
"o#	c #394B61",
"p#	c #36445B",
"q#	c #77808F",
"r#	c #364357",
"s#	c #333D54",
"t#	c #3C495D",
"u#	c #1E2234",
"v#	c #1E2335",
"w#	c #23293C",
"x#	c #858791",
"y#	c #B3B5BB",
"z#	c #273042",
"A#	c #8F949C",
"B#	c #E8EAEB",
"C#	c #21293C",
"D#	c #1E263B",
"E#	c #212B3D",
"F#	c #596172",
"G#	c #2B384D",
"H#	c #B3B8C0",
"I#	c #BDC2C8",
"J#	c #26354D",
"K#	c #27374F",
"L#	c #A9AFB8",
"M#	c #D0D4DA",
"N#	c #2B3A53",
"O#	c #EFF0F3",
"P#	c #667484",
"Q#	c #515E72",
"R#	c #2F435B",
"S#	c #405169",
"T#	c #778291",
"U#	c #D3D5DA",
"V#	c #2F3D54",
"W#	c #324055",
"X#	c #38465D",
"Y#	c #232B3C",
"Z#	c #22283B",
"`#	c #8C8F99",
" $	c #B6B9BE",
".$	c #475068",
"+$	c #20293D",
"@$	c #BABFC5",
"#$	c #C6C8CD",
"$$	c #D0D2D6",
"%$	c #7D8692",
"&$	c #2C3A50",
"*$	c #404D63",
"=$	c #FFFFFE",
"-$	c #DEE0E4",
";$	c #D4D7DC",
">$	c #5F6C7F",
",$	c #35455B",
"'$	c #F9FBFA",
")$	c #707F92",
"!$	c #5C697D",
"~$	c #3A4E68",
"{$	c #465870",
"]$	c #95A5B2",
"^$	c #DADDE1",
"/$	c #314156",
"($	c #364559",
"_$	c #39475B",
":$	c #343F51",
"<$	c #252F42",
"[$	c #3D4354",
"}$	c #464D5F",
"|$	c #263247",
"1$	c #3A4659",
"2$	c #475061",
"3$	c #737C8A",
"4$	c #828E9B",
"5$	c #3F495B",
"6$	c #2F3E54",
"7$	c #303F56",
"8$	c #314057",
"9$	c #314158",
"0$	c #747F8E",
"a$	c #7A8594",
"b$	c #425068",
"c$	c #3F5068",
"d$	c #485A71",
"e$	c #667586",
"f$	c #45566D",
"g$	c #425066",
"h$	c #6D7E90",
"i$	c #40526B",
"j$	c #4A5E78",
"k$	c #51657D",
"l$	c #5D687C",
"m$	c #364659",
"n$	c #49586A",
"o$	c #242E40",
"p$	c #262C3F",
"q$	c #263043",
"r$	c #273345",
"s$	c #2B364B",
"t$	c #2B374E",
"u$	c #2C384E",
"v$	c #525D6A",
"w$	c #29394F",
"x$	c #34435B",
"y$	c #324157",
"z$	c #38475D",
"A$	c #394960",
"B$	c #3D4C63",
"C$	c #414F66",
"D$	c #405167",
"E$	c #3A4C62",
"F$	c #44556B",
"G$	c #3A4B62",
"H$	c #46576C",
"I$	c #566B81",
"J$	c #4D6176",
"K$	c #4C6575",
"L$	c #3C4E62",
"M$	c #303F53",
"N$	c #3F5065",
"O$	c #465568",
"P$	c #273448",
"Q$	c #252E43",
"R$	c #252F43",
"S$	c #293248",
"T$	c #273346",
"U$	c #2F3D53",
"V$	c #293951",
"W$	c #2D3B50",
"X$	c #374457",
"Y$	c #36455D",
"Z$	c #31415A",
"`$	c #36455F",
" %	c #3A4960",
".%	c #39485D",
"+%	c #3E4E64",
"@%	c #4B5F73",
"#%	c #3F5166",
"$%	c #5B6C7A",
"%%	c #3C4C63",
"&%	c #3E4F67",
"*%	c #6B7B87",
"=%	c #415365",
"-%	c #71828D",
";%	c #404E61",
">%	c #2D3749",
",%	c #2F3A4C",
"'%	c #222F42",
")%	c #324154",
"!%	c #243347",
"~%	c #2A374A",
"{%	c #2A3A50",
"]%	c #2B3A51",
"^%	c #2E3D53",
"/%	c #3D4A5B",
"(%	c #36475D",
"_%	c #3A4A61",
":%	c #4F6074",
"<%	c #37455A",
"[%	c #33465A",
"}%	c #465A6D",
"|%	c #45576D",
"1%	c #39495E",
"2%	c #485A6E",
"3%	c #384860",
"4%	c #435160",
"5%	c #323E51",
"6%	c #374454",
"7%	c #2B394D",
"8%	c #2E384A",
"9%	c #313D50",
"0%	c #374356",
"a%	c #283A50",
"b%	c #303D4F",
"c%	c #2B3B53",
"d%	c #30425A",
"e%	c #364860",
"f%	c #2B3A52",
"g%	c #525D6D",
"h%	c #2F3F54",
"i%	c #344259",
"j%	c #3C4B62",
"k%	c #36465B",
"l%	c #33445A",
"m%	c #3B4D61",
"n%	c #33465D",
"o%	c #3B4C63",
"p%	c #33425A",
"q%	c #42536A",
"r%	c #4A5B70",
"s%	c #415166",
"t%	c #3C475F",
"u%	c #445668",
"v%	c #435364",
"w%	c #344358",
"x%	c #364359",
"y%	c #3D4C61",
"z%	c #415168",
"A%	c #243449",
"B%	c #2F3F53",
"C%	c #25354C",
"D%	c #2D4056",
"E%	c #384861",
"F%	c #293B56",
"G%	c #2D3D55",
"H%	c #304359",
"I%	c #3F5064",
"J%	c #66747E",
"K%	c #38485F",
"L%	c #374D64",
"M%	c #3A4B5F",
"N%	c #38495C",
"O%	c #36475C",
"P%	c #37475B",
"Q%	c #354157",
"R%	c #4E5D6A",
"S%	c #313C52",
"T%	c #3D475B",
"U%	c #323C50",
"V%	c #3B4A5F",
"W%	c #3F4D63",
"X%	c #384A60",
"Y%	c #27374D",
"Z%	c #263951",
"`%	c #5F6B77",
" &	c #49576B",
".&	c #364961",
"+&	c #314157",
"@&	c #324356",
"#&	c #303F51",
"$&	c #344458",
"%&	c #37475D",
"&&	c #364B63",
"*&	c #3B4D64",
"=&	c #3C5068",
"-&	c #344659",
";&	c #2F384B",
">&	c #39495C",
",&	c #394659",
"'&	c #2A3648",
")&	c #2F3D50",
"!&	c #2F3C50",
"~&	c #303A4D",
"{&	c #3D4A5E",
"]&	c #46576E",
"^&	c #293B54",
"/&	c #30435A",
"(&	c #3D5269",
"_&	c #34475A",
":&	c #495D6C",
"<&	c #314051",
"[&	c #314155",
"}&	c #34475F",
"|&	c #384B60",
"1&	c #36485F",
"2&	c #314056",
"3&	c #334255",
"4&	c #3D5062",
"5&	c #334358",
"6&	c #2F3B4E",
"7&	c #3A485C",
"8&	c #506377",
"9&	c #45536A",
"0&	c #395069",
"a&	c #293C53",
"b&	c #344A60",
"c&	c #324860",
"d&	c #293F53",
"e&	c #303F54",
"f&	c #37465C",
"g&	c #314459",
"h&	c #304356",
"i&	c #334259",
"j&	c #405064",
"k&	c #435467",
"l&	c #3A465B",
"m&	c #435065",
"n&	c #46566C",
"o&	c #43546B",
"p&	c #2E4561",
"q&	c #384E65",
"r&	c #203A51",
"s&	c #22374C",
"t&	c #3F4A54",
"u&	c #273549",
"v&	c #2A384C",
"w&	c #2D3A4B",
"x&	c #354257",
"y&	c #3D4E66",
"z&	c #42566C",
"A&	c #3D536A",
"B&	c #3A4A5B",
"C&	c #3B4A5D",
"D&	c #344256",
"E&	c #3C4C60",
"F&	c #6A7D8D",
"G&	c #42556B",
"H&	c #254058",
"I&	c #233A51",
"J&	c #253446",
"K&	c #2B3A4F",
"L&	c #2E3B4E",
"M&	c #2B394B",
"N&	c #374963",
"O&	c #3E5269",
"P&	c #36465A",
"Q&	c #38485A",
"R&	c #3D485C",
"S&	c #44566E",
"T&	c #475C70",
"U&	c #2D334C",
"V&	c #37475E",
"W&	c #3F4F66",
"X&	c #3D4F64",
"Y&	c #435567",
"Z&	c #38475F",
"                        . + @ # $ % & *                         ",
"                  = - ; > , ' ) ! ~ { ] ^ / (                   ",
"              _ : . < [ { } | 1 ] 2 2 3 4 5 6 7 8               ",
"            + 9 0 a b 1 c d e 3 f g h i j k l m n o             ",
"          p q r a a s k t u } v w x y z A B C D E F G           ",
"        H _ I J 3 K L M N O ] P Q R S T U V W X Y Z `  .        ",
"      . ..+.@.#.$.%.&.*.=.-.;.>.,.'.).!.~.{.].^./.(._.:.<.      ",
"    [.}.|.+.1.2.3.6 u 4.5.6.d 7.8.9.0.a.b.c.d.e.e.f.g.h.i.j.    ",
"    k.l.m.n.*.o.p.q.u r.s.t t.u.'.v.w.x.y.z.A.B.C.D.E.F.G.H.    ",
"  I.J.K.L.M.N.O.P.r.Q.R.S.T.U.V.W.!.X.Y.Z.`. +.+++@+#+$+%+&+*+  ",
"  =+-+;+>+,+'+)+!+~+{+]+^+R./+T.(+_+:+<+[+}+|+1+2+3+4+5+6+7+8+  ",
"  9+0+a+b+6 c+d+e+f+g+h+i+j+k+/.l+m+n+o+p+q+r+s+t+u+v+w+x+y+z+  ",
"A+B+f C+D+E+F+G+H+I+J+K+L+~.M+N+O+P+Q+R+S+H+T+U+V+W+X+Y+Z+`+ @.@",
"+@@@#@$@%@&@*@=@-@;@>@,@H+'@)@!@~@{@]@^@/@(@_@:@<@[@}@|@1@2@3@4@",
"5@6@7@8@9@0@a@b@c@d@e@f@g@h@i@j@k@H+l@m@n@o@p@q@r@s@H+t@u@v@w@x@",
"y@z@A@B@C@D@H+E@F@G@H@I@J@K@L@M@N@N@O@P@Q@R@S@T@H+U@V@W@X@Y@Z@`@",
" #.#+#@###$#H+%#&#*#=#-#++;#>#,#'#)#!#~#{#]#^#/#(#_#:#<#[#}#|#1#",
"2#3#4#5#6#7#8#9#0#a#b#c#d#}+e#f#g#h#i#j#k#t@l#m#n#o#p#q#o@r#s#t#",
"u#v#w#x#y#z#A#B#C#D#E#F#H+G#H#I#J#K#L#M#N#O#P#Q#k@R#S#T#U#V#W#X#",
"[+Y#Z#`# $.$+$@$H+#$$$H+%$&$*$=$-$;$H+>$,$'$)$!$H+~${$]$^$/$($_$",
"  :$<$[$}$|$1$]@2$3$4$5$6$7$8$9$0$a$b$c$d$e$f$g$h$i$j$k$l$m$n$  ",
"  o$o$p$P+q$r$s$t$u$v$w$x$y$z$A$B$p#C$D$E$F$G$H$I$J$K$L$M$N$O$  ",
"  P$Q$R$S$T$/$U$V$W$X$Y$Z$`$ %.%+%@%#%#%$%%%&%*%=%-%;%}+>%,%V#  ",
"    '%)%!%P$~%{%]%^%/%Y@(%_%_%:%<%[%}%|%1%2%3%4%5%6%7%8%9%0%    ",
"    a%'%b%c%d%e%f%w$g%h%i%j%k%l%m%n%o%p%q%r%s%t%u%v%w%x%y%z%    ",
"      A%B%C%D%E%F%G%H%I%X#Y$J%K%L%_%M%N%O%P%Q%R%S%T%U%V%W%      ",
"        X%Y%Z%`% &.&+&@&#&$&%&&&*&=&-&;&>&,&'&)&!&~&{&]&        ",
"          ^&/&]&(&R#_&:&<&[&}&|&1&2&3&4&5&6&7&_$o#8&9&          ",
"            0&a&b&c&d&N$e&f&g&h&(%i&j&k&($l&m&l&n&o&            ",
"              p&q&r&s&t&u&v&w&x&y&z&A&B&C&D&E&F&G&              ",
"                  H&I&J&K&L&M&N&O&_%P&Q&R&7&S&                  ",
"                        T&U&`+V&W&X&Y&Z&                        "};
