/* XPM */
static char * icoin16_xpm[] = {
"16 16 205 2",
"  	c None",
". 	c #161921",
"+ 	c #171A22",
"@ 	c #181C26",
"# 	c #1D222D",
"$ 	c #1A1F2A",
"% 	c #1C242F",
"& 	c #151820",
"* 	c #181A24",
"= 	c #1A1C27",
"- 	c #1A1F2B",
"; 	c #1A1E2A",
"> 	c #171B26",
", 	c #1C222E",
"' 	c #1A202E",
") 	c #1E2331",
"! 	c #34414D",
"~ 	c #171A24",
"{ 	c #181B28",
"] 	c #191E2B",
"^ 	c #1A1E2D",
"/ 	c #232933",
"( 	c #212835",
"_ 	c #202734",
": 	c #212635",
"< 	c #2C3541",
"[ 	c #202534",
"} 	c #262E3F",
"| 	c #191E28",
"1 	c #171925",
"2 	c #1C202D",
"3 	c #262D3A",
"4 	c #1C202E",
"5 	c #1F2332",
"6 	c #1D2230",
"7 	c #212433",
"8 	c #242938",
"9 	c #282C3C",
"0 	c #24293B",
"a 	c #262D3E",
"b 	c #283143",
"c 	c #364658",
"d 	c #161825",
"e 	c #161926",
"f 	c #242A36",
"g 	c #1C202F",
"h 	c #434C58",
"i 	c #222434",
"j 	c #2F3645",
"k 	c #242A3B",
"l 	c #313B4C",
"m 	c #283244",
"n 	c #2A374B",
"o 	c #263045",
"p 	c #171723",
"q 	c #282F3B",
"r 	c #252D3C",
"s 	c #171D2A",
"t 	c #2B2F3D",
"u 	c #252A3A",
"v 	c #2A303F",
"w 	c #242B3B",
"x 	c #252B3E",
"y 	c #3D4756",
"z 	c #2B3548",
"A 	c #405060",
"B 	c #293348",
"C 	c #2F3B50",
"D 	c #2A3649",
"E 	c #4D5C6C",
"F 	c #161A29",
"G 	c #2F313E",
"H 	c #3E4351",
"I 	c #8C8F97",
"J 	c #979AA2",
"K 	c #A6A9B0",
"L 	c #6E717C",
"M 	c #232A3C",
"N 	c #1C263A",
"O 	c #2D394D",
"P 	c #5C6475",
"Q 	c #344156",
"R 	c #29374D",
"S 	c #25334A",
"T 	c #384459",
"U 	c #2D3A4F",
"V 	c #1B202F",
"W 	c #4F5661",
"X 	c #606370",
"Y 	c #B4B6BC",
"Z 	c #1E2637",
"` 	c #1B2233",
" .	c #363E4E",
"..	c #8D929B",
"+.	c #9299A5",
"@.	c #9BA1AC",
"#.	c #8A919E",
"$.	c #4C576C",
"%.	c #D5D8DD",
"&.	c #C6C9D0",
"*.	c #596477",
"=.	c #323E56",
"-.	c #252D3E",
";.	c #515261",
">.	c #5F6370",
",.	c #B3B5BB",
"'.	c #242E40",
").	c #2D3948",
"!.	c #364052",
"~.	c #B3B7C0",
"{.	c #29364C",
"].	c #B2B7BE",
"^.	c #959CA6",
"/.	c #556174",
"(.	c #98A1AD",
"_.	c #4F5D70",
":.	c #8F96A0",
"<.	c #3D495C",
"[.	c #202538",
"}.	c #555A68",
"|.	c #787E8B",
"1.	c #9CA0A9",
"2.	c #868A95",
"3.	c #9DA1AA",
"4.	c #7B8491",
"5.	c #B8BDC5",
"6.	c #7B8593",
"7.	c #C5CAD1",
"8.	c #949CA8",
"9.	c #59677B",
"0.	c #A2ABB6",
"a.	c #647487",
"b.	c #88909D",
"c.	c #354359",
"d.	c #2E394C",
"e.	c #293244",
"f.	c #2D364A",
"g.	c #283448",
"h.	c #404B5E",
"i.	c #4C5869",
"j.	c #2F3F55",
"k.	c #2F3F57",
"l.	c #576477",
"m.	c #3B4B62",
"n.	c #4A5B71",
"o.	c #3F4F65",
"p.	c #51647B",
"q.	c #495F75",
"r.	c #3F4E62",
"s.	c #49586C",
"t.	c #273347",
"u.	c #273246",
"v.	c #2D3C51",
"w.	c #2C3A51",
"x.	c #364559",
"y.	c #36465E",
"z.	c #405066",
"A.	c #3D4E62",
"B.	c #43566B",
"C.	c #47586A",
"D.	c #4A5B6D",
"E.	c #485766",
"F.	c #303B4F",
"G.	c #303B4D",
"H.	c #243348",
"I.	c #2C3A50",
"J.	c #34465E",
"K.	c #293951",
"L.	c #3D4D61",
"M.	c #36455D",
"N.	c #445365",
"O.	c #384A61",
"P.	c #37485E",
"Q.	c #3F5065",
"R.	c #404D61",
"S.	c #3F4C5F",
"T.	c #364358",
"U.	c #404F65",
"V.	c #2F4057",
"W.	c #415165",
"X.	c #3C4E65",
"Y.	c #394B5D",
"Z.	c #314053",
"`.	c #364960",
" +	c #344356",
".+	c #354457",
"++	c #324053",
"@+	c #3A495D",
"#+	c #44536A",
"$+	c #2E445D",
"%+	c #30465E",
"&+	c #324456",
"*+	c #2E3C51",
"=+	c #304053",
"-+	c #3A4C63",
";+	c #405266",
">+	c #374559",
",+	c #4B596D",
"'+	c #44556C",
")+	c #24374E",
"!+	c #324055",
"~+	c #334259",
"{+	c #3D4F66",
"]+	c #39495D",
"^+	c #3E4B5F",
"          . + @ # $ %           ",
"      & * = - ; > , ' ) !       ",
"    . ~ { ] ^ / ( _ : < [ }     ",
"  | 1 2 3 4 5 6 7 8 9 0 a b c   ",
"  d e f g 6 [ h i j k l m n o   ",
"p q r s t u v w x y z A B C D E ",
"F G H I J K L M N O P Q R S T U ",
"V W X Y Z `  ...+.@.#.$.%.&.*.=.",
"-.;.>.,.'.).!.~.{.].^./.(._.:.<.",
"[.}.|.1.2.3.4.5.6.7.8.9.0.a.b.c.",
"d.e.f.g.h.i.j.k.l.m.n.o.p.q.r.s.",
"  t.u.v.w.x.y.z.A.B.C.D.E.F.G.  ",
"  H.I.J.K.L.M.N.O.P.Q.R.S.T.U.  ",
"    V.W.X.Y.Z.`.O. +.+++@+#+    ",
"      $+%+&+*+=+-+;+>+,+'+      ",
"          )+!+~+{+]+^+          "};
